<?xml version="1.0" standalone="no"?>
<!DOCTYPE svg PUBLIC "-//W3C//DTD SVG 20010904//EN"
 "http://www.w3.org/TR/2001/REC-SVG-20010904/DTD/svg10.dtd">
<svg version="1.0" xmlns="http://www.w3.org/2000/svg"
 width="512.000000pt" height="512.000000pt" viewBox="0 0 512.000000 512.000000"
 preserveAspectRatio="xMidYMid meet">
<metadata>
Created by potrace 1.11, written by Peter Selinger 2001-2013
</metadata>
<g transform="translate(0.000000,512.000000) scale(0.100000,-0.100000)"
fill="#000000" stroke="none">
<path d="M2361 5110 c-442 -37 -865 -184 -1222 -426 -164 -110 -242 -175 -394
-328 -401 -404 -644 -898 -721 -1466 -21 -152 -23 -480 -5 -625 75 -596 342
-1136 762 -1540 405 -390 892 -625 1464 -707 137 -20 523 -16 665 5 478 74
889 251 1247 537 114 91 295 271 388 385 227 278 404 630 491 975 247 981 -88
1994 -870 2629 -352 287 -816 486 -1266 545 -148 19 -406 27 -539 16z m1469
-892 c109 -50 262 -220 317 -353 51 -121 56 -324 13 -475 -27 -97 -113 -275
-184 -382 l-56 -86 -72 1 c-81 0 -147 -18 -248 -68 -99 -50 -257 -175 -220
-175 7 0 55 14 107 30 104 33 200 39 243 15 l25 -14 -150 -149 c-219 -216
-440 -396 -700 -567 -97 -64 -123 -76 -215 -100 -58 -15 -118 -35 -135 -43
l-30 -15 38 -17 38 -17 -39 -49 c-86 -107 -176 -169 -305 -209 -109 -35 -228
-52 -469 -69 l-207 -14 -180 -151 -181 -152 -120 3 -120 3 218 182 218 182 12
63 c6 35 23 153 37 263 15 110 33 233 40 273 19 99 66 231 106 296 35 59 129
166 145 166 5 -1 28 -24 51 -53 23 -29 55 -60 71 -69 l29 -18 6 148 c4 94 13
179 26 236 20 87 24 94 120 221 243 321 603 679 869 864 l32 22 0 -183 0 -183
64 150 c34 83 86 199 114 258 l51 108 103 48 c238 112 412 137 538 79z"/>
</g>
</svg>
